<?xml version="1.0" encoding="utf-8"?>
<!-- Generator: Adobe Illustrator 23.1.0, SVG Export Plug-In . SVG Version: 6.00 Build 0)  -->
<svg version="1.1" id="Layer_1" xmlns="http://www.w3.org/2000/svg" xmlns:xlink="http://www.w3.org/1999/xlink" x="0px" y="0px"
	 viewBox="0 0 32 32" style="enable-background:new 0 0 32 32;" xml:space="preserve">
<style type="text/css">
	.st0{fill:#00A389;}
	.st1{fill:#FFFFFF;}
	.st2{fill-rule:evenodd;clip-rule:evenodd;fill:#00795A;}
	.st3{fill:#00795A;}
</style>
<g>
	<g>
		<g>
			<path class="st0" d="M6.8,31.5c-1.9,0-3.5-1.6-3.5-3.5V4c0-1.9,1.6-3.5,3.5-3.5H22l6.3,6.3V28c0,1.9-1.6,3.5-3.5,3.5H6.8z"/>
			<g>
				<path class="st1" d="M22,1l6,6v21c0,1.7-1.3,3-3,3H7c-1.7,0-3-1.3-3-3V4c0-1.7,1.3-3,3-3H22 M22.4,0H22H7C4.8,0,3,1.8,3,4v24
					c0,2.2,1.8,4,4,4h18c2.2,0,4-1.8,4-4V7V6.6l-0.3-0.3l-6-6L22.4,0L22.4,0z"/>
			</g>
		</g>
	</g>
	<polygon class="st2" points="22,1 22,7 28,7 	"/>
</g>
<g>
	<g>
		<g>
			<path class="st3" d="M24.1,25l-4.3-4.3c-0.2-0.2-0.2-0.5,0-0.7s0.5-0.2,0.7,0l4.3,4.3c0.2,0.2,0.2,0.5,0,0.7
				C24.6,25.2,24.3,25.2,24.1,25z"/>
		</g>
		<g>
			<path class="st3" d="M14.7,22.6c-4.3,0-7.7-3.5-7.7-7.7s3.5-7.7,7.7-7.7s7.7,3.5,7.7,7.7S19,22.6,14.7,22.6z M14.7,8.1
				c-3.7,0-6.7,3-6.7,6.7s3,6.7,6.7,6.7s6.7-3,6.7-6.7C21.5,11.2,18.4,8.1,14.7,8.1z"/>
		</g>
	</g>
</g>
<g>
	<g>
		<g>
			<path class="st1" d="M24.1,24.7l-4.3-4.3c-0.2-0.2-0.2-0.5,0-0.7s0.5-0.2,0.7,0l4.3,4.3c0.2,0.2,0.2,0.5,0,0.7
				C24.6,24.9,24.3,24.8,24.1,24.7z"/>
		</g>
		<g>
			<path class="st1" d="M14.7,22.3c-4.3,0-7.7-3.5-7.7-7.7s3.5-7.7,7.7-7.7s7.7,3.5,7.7,7.7S19,22.3,14.7,22.3z M14.7,7.8
				c-3.7,0-6.7,3-6.7,6.7s3,6.7,6.7,6.7s6.7-3,6.7-6.7C21.5,10.9,18.4,7.8,14.7,7.8z"/>
		</g>
	</g>
</g>
</svg>
