<?xml version="1.0" encoding="utf-8"?>
<!-- Generator: Adobe Illustrator 21.0.2, SVG Export Plug-In . SVG Version: 6.00 Build 0)  -->
<!DOCTYPE svg PUBLIC "-//W3C//DTD SVG 1.1//EN" "http://www.w3.org/Graphics/SVG/1.1/DTD/svg11.dtd">
<svg version="1.1" id="Layer_1" xmlns="http://www.w3.org/2000/svg" xmlns:xlink="http://www.w3.org/1999/xlink" x="0px" y="0px"
	 viewBox="0 0 32 32" style="enable-background:new 0 0 32 32;" xml:space="preserve">
<style type="text/css">
	.st0{fill:#FFFFFF;}
	.st1{fill:none;}
	.st2{fill:#4B4B4B;}
	.st3{fill:#EEEEEE;}
	.st4{fill:#E2E2E2;}
	.st5{fill:#627783;}
</style>
<g>
	<path class="st0" d="M28,28V7l-6-6H7C5.3,1,4,2.3,4,4v24c0,1.7,1.3,3,3,3h18C26.7,31,28,29.7,28,28z"/>
</g>
<rect class="st1" width="32" height="32"/>
<g>
	<path class="st2" d="M139,1c-1.7,0-3,1.3-3,3v24c0,1.7,1.3,3,3,3h18c1.7,0,3-1.3,3-3V7l-6-6H139z M159,28c0,1.1-0.9,2-2,2h-18
		c-1.1,0-2-0.9-2-2V4c0-1.1,0.9-2,2-2h14.6l5.4,5.4V28z"/>
</g>
<g>
	<path class="st3" d="M28,7l-6-6H7C5.3,1,4,2.3,4,4v20.2l24-12.5V7z"/>
	<path class="st4" d="M28,28V11.7L4,24.2V28c0,1.7,1.3,3,3,3h18C26.7,31,28,29.7,28,28z"/>
</g>
<path class="st5" d="M22,1H7C5.3,1,4,2.3,4,4v24c0,1.7,1.3,3,3,3h18c1.7,0,3-1.3,3-3V7L22,1z M27,28c0,1.1-0.9,2-2,2H7
	c-1.1,0-2-0.9-2-2V4c0-1.1,0.9-2,2-2h15v5h5V28z"/>
<path class="st0" d="M22,1l6,6v21c0,1.7-1.3,3-3,3H7c-1.7,0-3-1.3-3-3V4c0-1.7,1.3-3,3-3H22 M22.4,0H22H7C4.8,0,3,1.8,3,4v24
	c0,2.2,1.8,4,4,4h18c2.2,0,4-1.8,4-4V6.6l-6.3-6.3L22.4,0L22.4,0z"/>
<g id="fave_icon_-_selected">
</g>
</svg>
